<svg width="16" height="16" viewBox="0 0 16 16" fill="none" xmlns="http://www.w3.org/2000/svg">
<path d="M4 0H3V4H4V0Z" fill="#A4A4A4"/>
<path d="M4 12H3V16H4V12Z" fill="#A4A4A4"/>
<path d="M6 2H1V14H6V2Z" fill="url(#paint0_linear_406_46133)"/>
<path opacity="0.9" d="M8.90625 15.7986L11.3263 9.05859H12.2262L14.8062 15.7986H13.9062L13.1663 13.7986H10.4963L9.80625 15.7986H8.90625ZM10.7362 12.9986H12.9062L12.2463 11.1386C12.0463 10.5686 11.8963 10.1386 11.7963 9.73859C11.7158 10.1766 11.6021 10.6078 11.4563 11.0286L10.7362 12.9986Z" fill="url(#paint1_linear_406_46133)"/>
<defs>
<linearGradient id="paint0_linear_406_46133" x1="3.5" y1="13.999" x2="3.5" y2="1.99902" gradientUnits="userSpaceOnUse">
<stop stop-color="#DFDFDF"/>
<stop offset="1" stop-color="#DFDFDF"/>
</linearGradient>
<linearGradient id="paint1_linear_406_46133" x1="11.8562" y1="9.05859" x2="11.8562" y2="15.7986" gradientUnits="userSpaceOnUse">
<stop stop-color="#DFDFDF"/>
<stop offset="1" stop-color="#B1B1B1"/>
</linearGradient>
</defs>
</svg>
