<svg width="16" height="16" viewBox="0 0 16 16" fill="none" xmlns="http://www.w3.org/2000/svg">
<path d="M4.46875 13.4922L0 15L1.48926 10.4775L4.46875 13.4922Z" fill="url(#paint0_linear_406_46042)"/>
<path d="M16 14.998H8V13H16V14.998Z" fill="url(#paint1_linear_406_46042)"/>
<path d="M11.5293 6.44043L5.37598 12.6689L2.43457 9.69238L8.59082 3.46387L11.5293 6.44043Z" fill="url(#paint2_linear_406_46042)"/>
<path d="M11.7471 1C11.917 1.00003 12.0854 1.03316 12.2422 1.09863C12.3991 1.16415 12.5417 1.26094 12.6611 1.38184L13.6279 2.36035L13.623 2.35938C13.8647 2.60668 14 2.93853 14 3.28418C14 3.62982 13.8647 3.96168 13.623 4.20898L12.1533 5.69727L11.9893 5.53125L9.48828 2.99512L9.32422 2.8291L9.48438 2.66309L10.833 1.38184C10.9525 1.26094 11.0951 1.16415 11.252 1.09863C11.4087 1.03324 11.5772 1 11.7471 1Z" fill="url(#paint3_linear_406_46042)"/>
<defs>
<linearGradient id="paint0_linear_406_46042" x1="8.00342" y1="0.999756" x2="8.00342" y2="14.9998" gradientUnits="userSpaceOnUse">
<stop stop-color="#DFDFDF"/>
<stop offset="1" stop-color="#B1B1B1"/>
</linearGradient>
<linearGradient id="paint1_linear_406_46042" x1="8.00342" y1="0.999756" x2="8.00342" y2="14.9998" gradientUnits="userSpaceOnUse">
<stop stop-color="#DFDFDF"/>
<stop offset="1" stop-color="#B1B1B1"/>
</linearGradient>
<linearGradient id="paint2_linear_406_46042" x1="8.00342" y1="0.999756" x2="8.00342" y2="14.9998" gradientUnits="userSpaceOnUse">
<stop stop-color="#DFDFDF"/>
<stop offset="1" stop-color="#B1B1B1"/>
</linearGradient>
<linearGradient id="paint3_linear_406_46042" x1="8.00342" y1="0.999756" x2="8.00342" y2="14.9998" gradientUnits="userSpaceOnUse">
<stop stop-color="#DFDFDF"/>
<stop offset="1" stop-color="#B1B1B1"/>
</linearGradient>
</defs>
</svg>
