<svg width="16" height="16" viewBox="0 0 16 16" fill="none" xmlns="http://www.w3.org/2000/svg">
<path d="M8.205 4.00082C6.89131 3.98024 5.60095 4.34916 4.49667 5.06103C3.39239 5.77289 2.52364 6.79583 2 8.00082C2.52364 9.2058 3.39239 10.2287 4.49667 10.9406C5.60095 11.6525 6.89131 12.0214 8.205 12.0008C9.51784 12.0204 10.8071 11.651 11.9104 10.9392C13.0137 10.2274 13.8817 9.20501 14.405 8.00082C13.8817 6.79662 13.0137 5.77422 11.9104 5.06242C10.8071 4.35061 9.51784 3.98124 8.205 4.00082V4.00082ZM8.205 10.6668C7.8418 10.6879 7.47812 10.6346 7.13625 10.5102C6.79439 10.3857 6.48156 10.1927 6.21695 9.94302C5.95234 9.69334 5.74152 9.39222 5.59743 9.05816C5.45334 8.7241 5.37902 8.36413 5.37902 8.00031C5.37902 7.6365 5.45334 7.27653 5.59743 6.94247C5.74152 6.6084 5.95234 6.30729 6.21695 6.05761C6.48156 5.80793 6.79439 5.61495 7.13625 5.49049C7.47812 5.36602 7.8418 5.3127 8.205 5.33381C8.5682 5.3127 8.93188 5.36602 9.27375 5.49049C9.61561 5.61495 9.92844 5.80793 10.193 6.05761C10.4577 6.30729 10.6685 6.6084 10.8126 6.94247C10.9567 7.27653 11.031 7.6365 11.031 8.00031C11.031 8.36413 10.9567 8.7241 10.8126 9.05816C10.6685 9.39222 10.4577 9.69334 10.193 9.94302C9.92844 10.1927 9.61561 10.3857 9.27375 10.5102C8.93188 10.6346 8.5682 10.6879 8.205 10.6668V10.6668ZM8.205 6.39982C7.88838 6.39883 7.57859 6.49181 7.31483 6.66697C7.05108 6.84213 6.84523 7.09161 6.72333 7.38383C6.60143 7.67604 6.56897 7.99785 6.63006 8.30852C6.69115 8.6192 6.84304 8.90475 7.06651 9.12905C7.28997 9.35335 7.57496 9.50631 7.8854 9.56856C8.19584 9.63082 8.51777 9.59958 8.81044 9.47878C9.10311 9.35798 9.35336 9.15307 9.52951 8.88998C9.70567 8.62688 9.7998 8.31744 9.8 8.00082C9.8 7.7907 9.75861 7.58265 9.67821 7.38853C9.5978 7.19441 9.47994 7.01801 9.33137 6.86944C9.1828 6.72086 9.00641 6.60301 8.81229 6.52261C8.61817 6.4422 8.41011 6.40081 8.2 6.40081L8.205 6.39982Z" fill="url(#paint0_linear_406_46199)"/>
<defs>
<linearGradient id="paint0_linear_406_46199" x1="8.2025" y1="4" x2="8.2025" y2="12.0016" gradientUnits="userSpaceOnUse">
<stop stop-color="#DFDFDF"/>
<stop offset="1" stop-color="#B1B1B1"/>
</linearGradient>
</defs>
</svg>
