<svg width="16" height="16" viewBox="0 0 16 16" fill="none" xmlns="http://www.w3.org/2000/svg">
<path d="M14.41 0H1.59C0.711867 0 0 0.711867 0 1.59V14.41C0 15.2881 0.711867 16 1.59 16H14.41C15.2881 16 16 15.2881 16 14.41V1.59C16 0.711867 15.2881 0 14.41 0Z" fill="url(#paint0_linear_406_45073)"/>
<path d="M1.59 0H14.41C14.8317 0 15.2361 0.167517 15.5343 0.4657C15.8325 0.763883 16 1.16831 16 1.59V4H0V1.59C0 1.16831 0.167517 0.763883 0.4657 0.4657C0.763883 0.167517 1.16831 0 1.59 0V0Z" fill="url(#paint1_linear_406_45073)"/>
<path d="M10.5028 12.4997C10.4372 12.5005 10.3722 12.4876 10.3119 12.4618C10.2517 12.4359 10.1975 12.3978 10.1528 12.3497L5.52281 7.72974L1.74 12.66L1 12L5.13281 6.66974C5.17625 6.61625 5.23115 6.5732 5.29346 6.54378C5.35578 6.51435 5.4239 6.4993 5.49281 6.49974C5.55989 6.49877 5.62645 6.51158 5.68838 6.53738C5.7503 6.56318 5.80627 6.60142 5.85281 6.64974L10.4828 11.2697L14.26 6.33984L15 6.99984L10.8728 12.3297C10.8294 12.3832 10.7745 12.4263 10.7122 12.4557C10.6498 12.4851 10.5817 12.5002 10.5128 12.4997H10.5028Z" fill="#333333"/>
<defs>
<linearGradient id="paint0_linear_406_45073" x1="8" y1="0" x2="8" y2="16" gradientUnits="userSpaceOnUse">
<stop stop-color="#DFDFDF"/>
<stop offset="1" stop-color="#B1B1B1"/>
</linearGradient>
<linearGradient id="paint1_linear_406_45073" x1="8" y1="0" x2="8" y2="4" gradientUnits="userSpaceOnUse">
<stop stop-color="#00E7F7"/>
<stop offset="1" stop-color="#51C3F1"/>
</linearGradient>
</defs>
</svg>
