<svg width="16" height="16" viewBox="0 0 16 16" fill="none" xmlns="http://www.w3.org/2000/svg">
<path d="M14.6489 7.37744L2.1139 1.07444C1.9812 1.00232 1.82965 0.97241 1.6795 0.988709C1.52935 1.00501 1.38775 1.06674 1.27361 1.16566C1.15948 1.26457 1.07825 1.39596 1.04078 1.54227C1.0033 1.68858 1.01137 1.84284 1.0639 1.98444L2.8139 6.67644L10.7969 8.00644L2.8139 9.33644L1.0639 14.0294C1.01269 14.169 1.00663 14.3211 1.04659 14.4643C1.08656 14.6074 1.17051 14.7344 1.28659 14.8273C1.40266 14.9202 1.54499 14.9742 1.69345 14.9817C1.84191 14.9893 1.98899 14.95 2.1139 14.8694L14.6489 8.56944C14.76 8.51446 14.8535 8.42952 14.9189 8.32421C14.9843 8.21889 15.0189 8.0974 15.0189 7.97344C15.0189 7.84948 14.9843 7.72799 14.9189 7.62268C14.8535 7.51737 14.76 7.43243 14.6489 7.37744Z" fill="url(#paint0_linear_445_51789)"/>
<defs>
<linearGradient id="paint0_linear_445_51789" x1="8.01825" y1="0.984375" x2="8.01825" y2="14.9827" gradientUnits="userSpaceOnUse">
<stop stop-color="#DFDFDF"/>
<stop offset="1" stop-color="#B1B1B1"/>
</linearGradient>
</defs>
</svg>
