<svg width="16" height="16" viewBox="0 0 16 16" fill="none" xmlns="http://www.w3.org/2000/svg">
<path d="M9.00391 0C12.8699 0 16.0039 3.13401 16.0039 7C16.0039 7.33959 15.9784 7.67334 15.9316 8H16.001V16H7.00098V13.707C6.11871 13.4439 5.30995 13.0122 4.61133 12.4482L1.0625 15.998L0.00195312 14.9375L3.55078 11.3877C2.58365 10.1873 2.00391 8.66157 2.00391 7C2.00391 3.13401 5.13791 0 9.00391 0ZM9.00391 1.5C5.96634 1.5 3.50391 3.96243 3.50391 7C3.50391 9.33051 4.95435 11.32 7.00098 12.1211V8H14.4121C14.4717 7.67566 14.5039 7.34157 14.5039 7C14.5039 3.96243 12.0415 1.5 9.00391 1.5Z" fill="url(#paint0_linear_406_46481)"/>
<rect x="8" y="9" width="7" height="6" fill="url(#paint1_linear_406_46481)"/>
<defs>
<linearGradient id="paint0_linear_406_46481" x1="8.00293" y1="0" x2="8.00293" y2="16" gradientUnits="userSpaceOnUse">
<stop stop-color="#DFDFDF"/>
<stop offset="1" stop-color="#B1B1B1"/>
</linearGradient>
<linearGradient id="paint1_linear_406_46481" x1="11.5" y1="9" x2="11.5" y2="15" gradientUnits="userSpaceOnUse">
<stop stop-color="#00E7F7"/>
<stop offset="1" stop-color="#51C3F1"/>
</linearGradient>
</defs>
</svg>
