<svg width="7" height="6" viewBox="0 0 7 6" fill="none" xmlns="http://www.w3.org/2000/svg">
<path d="M0.410267 0.107422L0.663519 0.854809L0 0.392314H0.823067L0.156383 0.854809L0.410267 0.107422Z" fill="white"/>
<path d="M0.410267 1.64258L0.663519 2.38997L0 1.92747H0.823067L0.156383 2.38997L0.410267 1.64258Z" fill="white"/>
<path d="M0.410267 3.15039L0.663519 3.89778L0 3.43528H0.823067L0.158915 3.89778L0.410267 3.15039Z" fill="white"/>
<path d="M0.410267 4.6875L0.663519 5.43489L0 4.97239H0.823067L0.158915 5.43489L0.410267 4.6875Z" fill="white"/>
<path d="M1.72667 0.890625L1.97993 1.63801L1.31641 1.17552H2.13947L1.47152 1.63801L1.72667 0.890625Z" fill="white"/>
<path d="M1.72667 2.39648L1.97993 3.14387L1.31641 2.68138H2.13947L1.47152 3.14387L1.72667 2.39648Z" fill="white"/>
<path d="M1.72667 3.90234L1.97993 4.64973L1.31641 4.18724H2.13947L1.47152 4.64973L1.72667 3.90234Z" fill="white"/>
<path d="M3.04503 0.107422L3.29828 0.854809L2.63477 0.392314H3.45783L2.79368 0.854809L3.04503 0.107422Z" fill="white"/>
<path d="M3.04503 1.64258L3.29828 2.38997L2.63477 1.92747H3.45783L2.79368 2.38997L3.04503 1.64258Z" fill="white"/>
<path d="M3.04503 3.15039L3.29828 3.89778L2.63477 3.43528H3.45783L2.79368 3.89778L3.04503 3.15039Z" fill="white"/>
<path d="M3.04503 4.6875L3.29828 5.43489L2.63477 4.97239H3.45783L2.79368 5.43489L3.04503 4.6875Z" fill="white"/>
<path d="M4.36144 0.890625L4.61469 1.63801L3.95117 1.17552H4.77424L4.11009 1.63801L4.36144 0.890625Z" fill="white"/>
<path d="M4.36144 2.39648L4.61469 3.14387L3.95117 2.68138H4.77424L4.11009 3.14387L4.36144 2.39648Z" fill="white"/>
<path d="M4.36144 3.90234L4.61469 4.64973L3.95117 4.18724H4.77424L4.11009 4.64973L4.36144 3.90234Z" fill="white"/>
<path d="M5.6798 0.107422L5.93305 0.854809L5.26953 0.392314H6.0926L5.43161 0.854809L5.6798 0.107422Z" fill="white"/>
<path d="M5.6798 1.64258L5.93305 2.38997L5.26953 1.92747H6.0926L5.43161 2.38997L5.6798 1.64258Z" fill="white"/>
<path d="M5.6798 3.15039L5.93305 3.89778L5.26953 3.43528H6.0926L5.43161 3.89778L5.6798 3.15039Z" fill="white"/>
<path d="M5.6798 4.6875L5.93305 5.43489L5.26953 4.97239H6.0926L5.43161 5.43489L5.6798 4.6875Z" fill="white"/>
</svg>
