<svg width="16" height="16" viewBox="0 0 16 16" fill="none" xmlns="http://www.w3.org/2000/svg">
<rect width="16" height="16" rx="8" fill="white"/>
<path d="M4.19629 3.64746V4.3623H2.71191V12.4365H4.19629V13.1533H2V3.64746H4.19629ZM11.4961 13.1533H9.2998V12.4365H10.7842V4.3623H9.2998V3.64648H11.4961V13.1533ZM7.33789 5.48047C8.28907 5.48071 9.06344 6.2556 9.06348 7.20801C9.06348 7.60129 8.93001 7.9631 8.70801 8.25391C9.0943 8.57101 9.34082 9.05212 9.34082 9.58984C9.34082 10.5424 8.56695 11.3173 7.61523 11.3174H4.18262V5.48047H7.33789ZM5.61426 10.2441H7.18359C7.5438 10.2441 7.83691 9.95044 7.83691 9.58984C7.83691 9.22924 7.5438 8.93562 7.18359 8.93555H5.61426V10.2441ZM5.61426 7.8623H7.05469C7.41494 7.86207 7.70801 7.56869 7.70801 7.20801C7.70797 6.84754 7.41492 6.55492 7.05469 6.55469H5.61426V7.8623ZM13.126 2.8457C13.3708 2.8457 13.573 2.91228 13.7305 3.04492C13.8878 3.17725 13.9667 3.34574 13.9668 3.55078C13.9668 3.73851 13.8896 3.88224 13.7354 3.98145C13.9117 4.08102 14 4.23387 14 4.43945C13.9999 4.65131 13.9188 4.82506 13.7568 4.96094C13.5946 5.09652 13.3864 5.16504 13.1328 5.16504C12.8945 5.16501 12.6933 5.10159 12.5293 4.97559C12.3658 4.85029 12.2677 4.67889 12.2363 4.46191H12.8799C12.9285 4.58718 13.014 4.65133 13.1396 4.65137C13.2167 4.65137 13.28 4.63063 13.3301 4.58984C13.3794 4.54888 13.4043 4.49483 13.4043 4.42871C13.4042 4.36497 13.3801 4.31403 13.332 4.27539C13.2835 4.23669 13.2158 4.21686 13.1299 4.2168H12.9121V3.7666H13.1133C13.1949 3.76658 13.2602 3.74845 13.3086 3.71191C13.3568 3.67564 13.3807 3.62762 13.3809 3.56836C13.3809 3.50216 13.3586 3.44884 13.3135 3.40918C13.2684 3.36938 13.2071 3.3487 13.1299 3.34863C13.0529 3.34863 12.9892 3.37551 12.9395 3.42871C12.9098 3.4604 12.8885 3.50284 12.873 3.55371H12.2598C12.2952 3.33131 12.3906 3.15786 12.5459 3.0332C12.7013 2.90852 12.8943 2.84577 13.126 2.8457Z" fill="#154096"/>
</svg>
