<svg width="16" height="16" viewBox="0 0 16 16" fill="none" xmlns="http://www.w3.org/2000/svg">
<path d="M5 12H4V11H5V12ZM12 12H11V11H12V12ZM6 11H5V10H6V11ZM11 11H10V10H11V11ZM7 10H6V9H7V10ZM10 10H9V9H10V10ZM9 9H7V7H9V9ZM7 7H6V6H7V7ZM10 7H9V6H10V7ZM6 6H5V5H6V6ZM11 6H10V5H11V6ZM5 5H4V4H5V5ZM12 5H11V4H12V5Z" fill="url(#paint0_linear_406_45162)"/>
<path d="M6 12H5V11H6V12ZM11 12H10V11H11V12ZM5 11H4V10H5V11ZM7 11H6V10H7V11ZM10 11H9V10H10V11ZM12 11H11V10H12V11ZM6 10H5V9H6V10ZM9 10H7V9H9V10ZM11 10H10V9H11V10ZM7 9H6V7H7V9ZM10 9H9V7H10V9ZM6 7H5V6H6V7ZM9 7H7V6H9V7ZM11 7H10V6H11V7ZM5 6H4V5H5V6ZM7 6H6V5H7V6ZM10 6H9V5H10V6ZM12 6H11V5H12V6ZM6 5H5V4H6V5ZM11 5H10V4H11V5Z" fill="#D8D8D8" fill-opacity="0.2"/>
<defs>
<linearGradient id="paint0_linear_406_45162" x1="8" y1="5.952" x2="8" y2="10.048" gradientUnits="userSpaceOnUse">
<stop stop-color="#DFDFDF"/>
<stop offset="1" stop-color="#C2C2C2"/>
</linearGradient>
</defs>
</svg>
