<svg width="16" height="16" viewBox="0 0 16 16" fill="none" xmlns="http://www.w3.org/2000/svg">
<path d="M0 1H11V3H0V1Z" fill="#DF353A"/>
<path d="M5 13H16V15H5V13Z" fill="#DF353A"/>
<path d="M14.2706 0C14.1706 3.8 13.2796 8.6 11.6946 9.3C10.8026 9.6 9.71256 8.6 8.82156 7.7C7.73056 6.4 6.54156 5.9 5.35256 6.2C2.18256 7.1 0.501563 13.9 0.101562 16H1.58756C2.28156 12.8 3.86656 8.2 5.74956 7.7C6.34456 7.5 7.03756 7.9 7.73156 8.7C9.41556 10.5 10.9026 11.2 12.1906 10.7C15.0636 9.6 15.6576 2.9 15.7566 0.1H14.2706V0Z" fill="url(#paint0_linear_406_46171)"/>
<defs>
<linearGradient id="paint0_linear_406_46171" x1="7.89775" y1="-0.118164" x2="7.89775" y2="10.752" gradientUnits="userSpaceOnUse">
<stop stop-color="#00E7F7"/>
<stop offset="1" stop-color="#51C3F1"/>
</linearGradient>
</defs>
</svg>
