<svg width="16" height="16" viewBox="0 0 16 16" fill="none" xmlns="http://www.w3.org/2000/svg">
<g clip-path="url(#clip0_400_31477)">
<path fill-rule="evenodd" clip-rule="evenodd" d="M8.61563 15.7818C8.67813 15.8193 8.80625 15.8849 8.90312 15.9224C9.13125 16.0193 9.53125 16.0255 9.80937 15.938C10.4375 15.7411 10.7063 15.3161 10.8125 14.3411C10.8906 13.6411 10.7469 12.213 10.4531 10.7818C10.4094 10.5693 10.375 10.3911 10.375 10.3849C10.375 10.3786 11.1938 10.3724 12.1969 10.3724C13.6906 10.3724 14.05 10.363 14.2125 10.3255C14.9438 10.1536 15.5 9.45989 15.5 8.71614C15.5 8.50051 15.4156 8.15676 15.3188 7.96614L15.2312 7.79426L15.4875 7.54426C15.6531 7.38176 15.7688 7.23489 15.8219 7.12239C16.1719 6.38489 15.9969 5.55676 15.3844 5.05989L15.225 4.92864L15.3188 4.74739C15.4187 4.54426 15.5 4.21301 15.5 3.99739C15.5 3.77551 15.4187 3.45989 15.3125 3.24426C15.1969 3.01926 14.9219 2.71301 14.7281 2.60051C14.6531 2.55676 14.5938 2.51301 14.5938 2.50364C14.5938 2.49426 14.6219 2.42864 14.6562 2.35989C14.8125 2.03489 14.8531 1.61926 14.7625 1.24739C14.6281 0.672388 14.1062 0.156763 13.5312 0.0286379C13.2531 -0.0307371 8.20625 0.00363788 7.6875 0.0692629C6.52187 0.216138 5.64375 0.406763 4.66563 0.716138L4.25 0.844263V5.13176V9.41926L4.5875 9.68489C5.71875 10.5818 6.55 11.4818 6.92188 12.213C6.96875 12.3068 7.2375 12.988 7.52187 13.7286C7.80312 14.4693 8.075 15.1443 8.11875 15.2286C8.22188 15.4193 8.46562 15.688 8.61563 15.7818ZM0.162591 8.86319C0.203216 8.90069 0.293841 8.94756 0.359466 8.96319C0.428216 8.97881 1.12822 8.99131 1.91572 8.99444L3.34384 8.99756V5.02881V1.06006H1.85322C0.501656 1.06006 0.267386 1.058 0.148619 1.1741C0.121021 1.20108 0.09966 1.23444 0.0719657 1.27569L9.07014e-05 1.38194V5.00381C9.07014e-05 8.45595 -0.00721958 8.69645 0.109417 8.81522C0.124866 8.83095 0.142489 8.84455 0.162591 8.86319Z" fill="#485866"/>
</g>
<defs>
<clipPath id="clip0_400_31477">
<rect width="16" height="16" fill="white"/>
</clipPath>
</defs>
</svg>
