<svg width="16" height="16" viewBox="0 0 16 16" fill="none" xmlns="http://www.w3.org/2000/svg">
<g clip-path="url(#clip0_406_47367)">
<path d="M7 5C7 4.44772 7.44772 4 8 4C8.55229 4 9 4.44772 9 5V7H11C11.5523 7 12 7.44772 12 8C12 8.55229 11.5523 9 11 9H9V11C9 11.5523 8.55229 12 8 12C7.44772 12 7 11.5523 7 11V9H5C4.44772 9 4 8.55229 4 8C4 7.44772 4.44772 7 5 7H7V5Z" fill="#D9D9D9" fill-opacity="0.5"/>
<path fill-rule="evenodd" clip-rule="evenodd" d="M4 0C1.79086 0 0 1.79086 0 4V12C0 14.2091 1.79086 16 4 16H12C14.2091 16 16 14.2091 16 12V4C16 1.79086 14.2091 0 12 0H4ZM12 1H4C2.34315 1 1 2.34315 1 4V12C1 13.6569 2.34315 15 4 15H12C13.6569 15 15 13.6569 15 12V4C15 2.34315 13.6569 1 12 1Z" fill="#D9D9D9" fill-opacity="0.5"/>
</g>
<defs>
<clipPath id="clip0_406_47367">
<rect width="16" height="16" fill="white"/>
</clipPath>
</defs>
</svg>
