<svg width="16" height="16" viewBox="0 0 16 16" fill="none" xmlns="http://www.w3.org/2000/svg">
<path fill-rule="evenodd" clip-rule="evenodd" d="M8 1C10.7922 1 13.2016 2.6353 14.3252 5H13V5.50098C12.7462 5.50193 12.4627 5.5165 12.1758 5.55957C11.2505 5.69853 10.4896 6.08028 10.2979 6.94434C10.2162 7.31226 10.1632 7.66285 10.124 8H9.11719C9.16079 7.59657 9.22303 7.17037 9.32129 6.72754C9.6534 5.23099 10.9883 4.72733 12.0273 4.57129C12.3234 4.52684 12.6121 4.50842 12.874 4.50293C12.6004 4.12218 12.2831 3.77549 11.9297 3.46875C11.9267 3.48889 11.9268 3.49414 11.9268 3.49414C11.9268 3.49414 11.9241 3.49347 11.9219 3.49316C11.9172 3.49251 11.9091 3.49158 11.8984 3.49023C11.8767 3.48749 11.8426 3.48388 11.7988 3.47949C11.7111 3.4707 11.5827 3.45978 11.4268 3.4541C11.1127 3.44269 10.6968 3.45069 10.2734 3.52441C9.40409 3.67587 8.67444 4.06233 8.48926 4.93262C8.24894 6.06275 8.25179 7.02821 8.18652 7.94922C8.12339 8.83974 7.99373 9.72186 7.38086 10.4424C6.35652 11.6463 4.59967 11.7628 2.85254 11.084C2.97091 11.2811 3.10168 11.4698 3.24121 11.6514L3.24512 11.6455C4.22307 12.1966 5.32052 12.4839 6.28125 12.499C6.99563 12.5102 7.584 12.371 8 12.126V13.2285C7.47278 13.4253 6.87328 13.5085 6.26562 13.499C6.00071 13.4949 5.72927 13.4711 5.4541 13.4326C6.22715 13.7955 7.0895 14 8 14V15C4.13401 15 1 11.866 1 8C1 4.13401 4.13401 1 8 1ZM8 2C4.68629 2 2 4.68629 2 8C2 8.5903 2.08627 9.16038 2.24512 9.69922L2.25293 9.6875C4.18089 10.821 5.861 10.6851 6.61914 9.79395C7.00601 9.33905 7.12662 8.75125 7.18848 7.87891C7.24815 7.03706 7.2512 5.94521 7.51074 4.72461C7.8257 3.24411 9.09607 2.71525 10.1016 2.54004C10.2006 2.52278 10.299 2.50971 10.3955 2.49805C9.66166 2.17809 8.85169 2 8 2Z" fill="url(#paint0_linear_9500_10875)"/>
<path d="M12 13.7432C11.1249 14.3538 10.1044 14.7687 9 14.9268V13.915C10.1418 13.7234 11.1738 13.2104 12 12.4707V13.7432Z" fill="url(#paint1_linear_9500_10875)"/>
<path d="M14.709 6C14.8976 6.6338 15 7.30491 15 8C15 9.90691 14.2367 11.635 13 12.8975V11.3164C13.6315 10.3663 14 9.22632 14 8V6H14.709Z" fill="url(#paint2_linear_9500_10875)"/>
<path d="M9.8457 11C9.73179 11.5305 9.52903 12.0354 9.13574 12.4785C9.09236 12.5274 9.04696 12.5741 9 12.6191V11H9.8457Z" fill="url(#paint3_linear_9500_10875)"/>
<path d="M9 10H8.97461C8.97738 9.96624 8.98083 9.93211 8.9834 9.89746C8.99009 9.80695 8.99426 9.7134 9 9.61719V10Z" fill="url(#paint4_linear_9500_10875)"/>
<path d="M10.04 9C10.0268 9.2207 10.0129 9.43688 10 9.65039V9H10.04Z" fill="url(#paint5_linear_9500_10875)"/>
<path d="M11 16H10V15H9V11H10V9H11V11H12V15H11V16Z" fill="url(#paint6_linear_9500_10875)"/>
<path d="M15 8H16V13H15V15H14V13H13V8H14V6H15V8Z" fill="url(#paint7_linear_9500_10875)"/>
<defs>
<linearGradient id="paint0_linear_9500_10875" x1="4" y1="4.00167" x2="10.3883" y2="13.0852" gradientUnits="userSpaceOnUse">
<stop offset="0.5" stop-color="#D8D8D8"/>
<stop offset="1" stop-color="#333333"/>
</linearGradient>
<linearGradient id="paint1_linear_9500_10875" x1="4" y1="4.00167" x2="10.3883" y2="13.0852" gradientUnits="userSpaceOnUse">
<stop offset="0.5" stop-color="#D8D8D8"/>
<stop offset="1" stop-color="#333333"/>
</linearGradient>
<linearGradient id="paint2_linear_9500_10875" x1="4" y1="4.00167" x2="10.3883" y2="13.0852" gradientUnits="userSpaceOnUse">
<stop offset="0.5" stop-color="#D8D8D8"/>
<stop offset="1" stop-color="#333333"/>
</linearGradient>
<linearGradient id="paint3_linear_9500_10875" x1="4" y1="4.00167" x2="10.3883" y2="13.0852" gradientUnits="userSpaceOnUse">
<stop offset="0.5" stop-color="#D8D8D8"/>
<stop offset="1" stop-color="#333333"/>
</linearGradient>
<linearGradient id="paint4_linear_9500_10875" x1="4" y1="4.00167" x2="10.3883" y2="13.0852" gradientUnits="userSpaceOnUse">
<stop offset="0.5" stop-color="#D8D8D8"/>
<stop offset="1" stop-color="#333333"/>
</linearGradient>
<linearGradient id="paint5_linear_9500_10875" x1="4" y1="4.00167" x2="10.3883" y2="13.0852" gradientUnits="userSpaceOnUse">
<stop offset="0.5" stop-color="#D8D8D8"/>
<stop offset="1" stop-color="#333333"/>
</linearGradient>
<linearGradient id="paint6_linear_9500_10875" x1="10.5" y1="9.5" x2="10.5" y2="16.5" gradientUnits="userSpaceOnUse">
<stop stop-color="#FF6D63"/>
<stop offset="1" stop-color="#FF4949"/>
</linearGradient>
<linearGradient id="paint7_linear_9500_10875" x1="14.5" y1="7" x2="14.5" y2="14" gradientUnits="userSpaceOnUse">
<stop stop-color="#00F6B7"/>
<stop offset="1" stop-color="#00CB8D"/>
</linearGradient>
</defs>
</svg>
