<svg width="16" height="16" viewBox="0 0 16 16" fill="none" xmlns="http://www.w3.org/2000/svg">
<g clip-path="url(#clip0_406_47320)">
<rect width="16" height="16" rx="2" fill="#004A8F"/>
<rect width="16" height="5.33333" fill="#FDC82F"/>
<rect y="6" width="16" height="10" fill="#008542"/>
<path d="M16 6.28527V5.14258H0V6.28527H4.37067L3.08063 10.8572H5.6762C6.91751 10.9071 7.87271 9.99716 7.56196 8.93015C7.49652 8.72655 7.35387 8.55673 7.16462 8.45713C7.40179 8.3129 7.59894 8.11142 7.73798 7.87117C7.83343 7.68871 7.87481 7.48279 7.85724 7.27762C7.83967 7.07245 7.76388 6.87656 7.63879 6.71299C7.4873 6.56288 7.30536 6.44702 7.10527 6.37323C6.90517 6.29944 6.69157 6.26945 6.47889 6.28527H9.23099L7.95356 10.8572H9.23156L9.72694 8.85561H10.4723C10.9935 8.85561 10.9447 9.35328 10.9574 9.49032L10.9946 10.8566H12.1734C12.1734 10.8566 12.1362 9.34067 12.1362 9.24091C12.1408 9.17796 12.1328 9.11472 12.1128 9.05487C12.0928 8.99501 12.0611 8.93972 12.0195 8.89221C11.978 8.84469 11.9274 8.80589 11.8708 8.77805C11.8141 8.75022 11.7525 8.7339 11.6895 8.73005C12.0354 8.60746 12.3288 8.37011 12.5209 8.05751C12.6228 7.90056 12.687 7.72214 12.7085 7.53624C12.73 7.35033 12.7082 7.16197 12.6447 6.98591C12.55 6.75791 12.3842 6.56656 12.1721 6.44033C11.9599 6.3141 11.7126 6.25971 11.4671 6.28527H16ZM10.2321 7.14014H11.1231C11.1841 7.13276 11.246 7.13791 11.3051 7.15528C11.3641 7.17264 11.4189 7.20186 11.4662 7.24114C11.5136 7.28042 11.5524 7.32895 11.5803 7.38374C11.6083 7.43854 11.6248 7.49846 11.6288 7.55984C11.6223 7.64629 11.5982 7.7305 11.5579 7.80728C11.5177 7.88407 11.4621 7.9518 11.3947 8.00632C11.3273 8.06083 11.2495 8.10098 11.166 8.12427C11.0825 8.14757 10.9951 8.15353 10.9092 8.14179H9.9666C9.9666 8.14179 10.22 7.15333 10.2321 7.14071V7.14014ZM4.90446 8.85561H5.76048C6.21056 8.85561 6.37225 9.21568 6.23923 9.61703C6.21458 9.69156 6.11997 10 5.57414 10H4.57937L4.90446 8.85332V8.85561ZM5.37576 7.14243H6.36824C6.42155 7.1445 6.47387 7.1576 6.52186 7.18091C6.56986 7.20422 6.6125 7.23723 6.6471 7.27786C6.68169 7.31848 6.70748 7.36584 6.72284 7.41694C6.7382 7.46805 6.74279 7.52178 6.73633 7.57474C6.72272 7.72704 6.65354 7.86901 6.54199 7.97358C6.43043 8.07816 6.2843 8.13803 6.13144 8.14179H5.07704L5.37576 7.14243Z" fill="white"/>
</g>
<defs>
<clipPath id="clip0_406_47320">
<rect width="16" height="16" rx="2" fill="white"/>
</clipPath>
</defs>
</svg>
