<svg width="16" height="16" viewBox="0 0 16 16" fill="none" xmlns="http://www.w3.org/2000/svg">
<path d="M5 13V15H2V13H5ZM10 13V15H6V13H10ZM14 13V15H11V13H14ZM14 12H2V9H14V12Z" fill="url(#paint0_linear_406_46574)"/>
<rect x="8" y="7" width="5" height="1" fill="#217E4D"/>
<rect x="8" y="6" width="6" height="1" fill="#258753"/>
<rect x="8" y="5" width="7" height="1" fill="#2C905A"/>
<rect x="8" y="4" width="7" height="1" fill="#309861"/>
<rect x="8" y="3" width="7" height="1" fill="#339D64"/>
<rect x="8" y="2" width="6" height="1" fill="#35A168"/>
<rect x="8" y="1" width="5" height="1" fill="#37A56A"/>
<rect x="13" y="1" width="1" height="1" fill="#4B986F"/>
<rect x="14" y="6" width="1" height="1" fill="#3E835E"/>
<rect x="14" y="2" width="1" height="1" fill="#48956C"/>
<rect x="13" y="7" width="1" height="1" fill="#3B7D5A"/>
<rect width="4" height="1" transform="matrix(-1 0 0 1 7 7)" fill="#B23A3A"/>
<rect width="5" height="1" transform="matrix(-1 0 0 1 7 6)" fill="#B63A3A"/>
<rect width="6" height="1" transform="matrix(-1 0 0 1 7 5)" fill="#BD3C3C"/>
<rect width="6" height="1" transform="matrix(-1 0 0 1 7 4)" fill="#C44040"/>
<rect width="6" height="1" transform="matrix(-1 0 0 1 7 3)" fill="#CB4242"/>
<rect width="5" height="1" transform="matrix(-1 0 0 1 7 2)" fill="#D14343"/>
<rect width="4" height="1" transform="matrix(-1 0 0 1 7 1)" fill="#D44545"/>
<rect width="1" height="1" transform="matrix(-1 0 0 1 3 1)" fill="#B65353"/>
<rect width="1" height="1" transform="matrix(-1 0 0 1 2 6)" fill="#A84E4E"/>
<rect width="1" height="1" transform="matrix(-1 0 0 1 2 2)" fill="#B65353"/>
<rect width="1" height="1" transform="matrix(-1 0 0 1 3 7)" fill="#A44D4D"/>
<defs>
<linearGradient id="paint0_linear_406_46574" x1="8" y1="15" x2="8" y2="9" gradientUnits="userSpaceOnUse">
<stop stop-color="#DFDFDF"/>
<stop offset="1" stop-color="#B1B1B1"/>
</linearGradient>
</defs>
</svg>
