<svg width="16" height="16" viewBox="0 0 16 16" fill="none" xmlns="http://www.w3.org/2000/svg">
<path opacity="0.9" d="M12 5.86836H10.0066V3.875H8.00332V5.86836H6V7.87168H8.00332V9.875H10.0066V7.87168H12V5.86836Z" fill="url(#paint0_linear_406_46413)"/>
<path d="M9.00586 0C12.8719 0 16.0059 3.13401 16.0059 7C16.0059 10.866 12.8719 14 9.00586 14C7.34182 14 5.81454 13.418 4.61328 12.4482L1.06445 15.998L0.00390625 14.9375L3.55273 11.3877C2.58561 10.1873 2.00586 8.66157 2.00586 7C2.00586 3.13401 5.13987 0 9.00586 0ZM9.00586 1.5C5.96829 1.5 3.50586 3.96243 3.50586 7C3.50586 10.0376 5.96829 12.5 9.00586 12.5C12.0434 12.5 14.5059 10.0376 14.5059 7C14.5059 3.96243 12.0434 1.5 9.00586 1.5Z" fill="url(#paint1_linear_406_46413)"/>
<defs>
<linearGradient id="paint0_linear_406_46413" x1="9" y1="3.875" x2="9" y2="9.875" gradientUnits="userSpaceOnUse">
<stop stop-color="#00E7F7"/>
<stop offset="0.536708" stop-color="#51C3F1"/>
</linearGradient>
<linearGradient id="paint1_linear_406_46413" x1="8.00488" y1="0" x2="8.00488" y2="15.998" gradientUnits="userSpaceOnUse">
<stop stop-color="#DFDFDF"/>
<stop offset="1" stop-color="#B1B1B1"/>
</linearGradient>
</defs>
</svg>
