<svg width="270" height="16" viewBox="0 0 270 16" fill="none" xmlns="http://www.w3.org/2000/svg">
<g clip-path="url(#clip0_353_45405)">
<circle cx="8" cy="8" r="8" fill="url(#paint0_linear_353_45405)"/>
<path d="M3.50347 10.334V5.35482H5.26736C7.03588 5.35482 7.92014 6.16385 7.92014 7.7819C7.92014 8.55736 7.67824 9.17658 7.19444 9.63954C6.71296 10.1025 6.0706 10.334 5.26736 10.334H3.50347ZM4.625 6.26801V9.42426H5.18056C5.66667 9.42426 6.04745 9.27843 6.32292 8.98676C6.60069 8.6951 6.73958 8.2981 6.73958 7.79579C6.73958 7.32125 6.60185 6.94857 6.32639 6.67773C6.05324 6.40459 5.66898 6.26801 5.17361 6.26801H4.625ZM13.0139 10.334H11.7917L11.4375 9.22635H9.66667L9.31597 10.334H8.10069L9.91319 5.35482H11.2431L13.0139 10.334ZM11.1806 8.36523L10.6458 6.69162C10.6065 6.56662 10.5787 6.41732 10.5625 6.24371H10.5347C10.5231 6.38954 10.4942 6.53422 10.4479 6.67773L9.90625 8.36523H11.1806Z" fill="#111111" fill-opacity="0.9"/>
</g>
<path d="M24.9609 12V3.59766H27.9375C30.9219 3.59766 32.4141 4.96289 32.4141 7.69336C32.4141 9.00195 32.0059 10.0469 31.1895 10.8281C30.377 11.6094 29.293 12 27.9375 12H24.9609ZM26.8535 5.13867V10.4648H27.791C28.6113 10.4648 29.2539 10.2188 29.7188 9.72656C30.1875 9.23438 30.4219 8.56445 30.4219 7.7168C30.4219 6.91602 30.1895 6.28711 29.7246 5.83008C29.2637 5.36914 28.6152 5.13867 27.7793 5.13867H26.8535ZM38.6191 12H36.8672V11.1387H36.8438C36.4414 11.8105 35.8457 12.1465 35.0566 12.1465C34.4746 12.1465 34.0156 11.9824 33.6797 11.6543C33.3477 11.3223 33.1816 10.8809 33.1816 10.3301C33.1816 9.16602 33.8711 8.49414 35.25 8.31445L36.8789 8.09766C36.8789 7.44141 36.5234 7.11328 35.8125 7.11328C35.0977 7.11328 34.418 7.32617 33.7734 7.75195V6.35742C34.0312 6.22461 34.3828 6.10742 34.8281 6.00586C35.2773 5.9043 35.6855 5.85352 36.0527 5.85352C37.7637 5.85352 38.6191 6.70703 38.6191 8.41406V12ZM36.8789 9.5625V9.1582L35.7891 9.29883C35.1875 9.37695 34.8867 9.64844 34.8867 10.1133C34.8867 10.3242 34.959 10.498 35.1035 10.6348C35.252 10.7676 35.4512 10.834 35.7012 10.834C36.0488 10.834 36.332 10.7148 36.5508 10.4766C36.7695 10.2344 36.8789 9.92969 36.8789 9.5625ZM45.8789 12H44.0332V8.66602C44.0332 7.73633 43.7012 7.27148 43.0371 7.27148C42.7168 7.27148 42.4531 7.39453 42.2461 7.64062C42.0391 7.88672 41.9355 8.19922 41.9355 8.57812V12H40.084V6H41.9355V6.94922H41.959C42.4004 6.21875 43.043 5.85352 43.8867 5.85352C45.2148 5.85352 45.8789 6.67773 45.8789 8.32617V12ZM48.2871 5.05078C47.9746 5.05078 47.7188 4.95898 47.5195 4.77539C47.3203 4.58789 47.2207 4.35938 47.2207 4.08984C47.2207 3.8125 47.3203 3.58594 47.5195 3.41016C47.7188 3.23438 47.9746 3.14648 48.2871 3.14648C48.6035 3.14648 48.8594 3.23438 49.0547 3.41016C49.2539 3.58594 49.3535 3.8125 49.3535 4.08984C49.3535 4.37109 49.2539 4.60156 49.0547 4.78125C48.8594 4.96094 48.6035 5.05078 48.2871 5.05078ZM49.2012 12H47.3496V6H49.2012V12ZM56.1504 9.52734H52.2363C52.2988 10.3984 52.8477 10.834 53.8828 10.834C54.543 10.834 55.123 10.6777 55.623 10.3652V11.7012C55.0684 11.998 54.3477 12.1465 53.4609 12.1465C52.4922 12.1465 51.7402 11.8789 51.2051 11.3438C50.6699 10.8047 50.4023 10.0547 50.4023 9.09375C50.4023 8.09766 50.6914 7.30859 51.2695 6.72656C51.8477 6.14453 52.5586 5.85352 53.4023 5.85352C54.2773 5.85352 54.9531 6.11328 55.4297 6.63281C55.9102 7.15234 56.1504 7.85742 56.1504 8.74805V9.52734ZM54.4336 8.39062C54.4336 7.53125 54.0859 7.10156 53.3906 7.10156C53.0938 7.10156 52.8359 7.22461 52.6172 7.4707C52.4023 7.7168 52.2715 8.02344 52.2246 8.39062H54.4336ZM59.1035 12H57.252V3.11719H59.1035V12ZM71.5488 12H69.4863L68.8887 10.1309H65.9004L65.3086 12H63.2578L66.3164 3.59766H68.5605L71.5488 12ZM68.4551 8.67773L67.5527 5.85352C67.4863 5.64258 67.4395 5.39062 67.4121 5.09766H67.3652C67.3457 5.34375 67.2969 5.58789 67.2188 5.83008L66.3047 8.67773H68.4551ZM78.2109 12H76.3652V8.66602C76.3652 7.73633 76.0332 7.27148 75.3691 7.27148C75.0488 7.27148 74.7852 7.39453 74.5781 7.64062C74.3711 7.88672 74.2676 8.19922 74.2676 8.57812V12H72.416V6H74.2676V6.94922H74.291C74.7324 6.21875 75.375 5.85352 76.2188 5.85352C77.5469 5.85352 78.2109 6.67773 78.2109 8.32617V12ZM83.3086 11.9297C83.0352 12.0742 82.623 12.1465 82.0723 12.1465C80.7676 12.1465 80.1152 11.4688 80.1152 10.1133V7.36523H79.1426V6H80.1152V4.70508L81.9609 4.17773V6H83.3086V7.36523H81.9609V9.79102C81.9609 10.416 82.209 10.7285 82.7051 10.7285C82.9004 10.7285 83.1016 10.6719 83.3086 10.5586V11.9297ZM90.0586 12H88.2129V11.0859H88.1836C87.7266 11.793 87.1152 12.1465 86.3496 12.1465C84.959 12.1465 84.2637 11.3047 84.2637 9.62109V6H86.1094V9.45703C86.1094 10.3047 86.4453 10.7285 87.1172 10.7285C87.4492 10.7285 87.7148 10.6133 87.9141 10.3828C88.1133 10.1484 88.2129 9.83203 88.2129 9.43359V6H90.0586V12ZM97.418 12H95.5723V8.66602C95.5723 7.73633 95.2402 7.27148 94.5762 7.27148C94.2559 7.27148 93.9922 7.39453 93.7852 7.64062C93.5781 7.88672 93.4746 8.19922 93.4746 8.57812V12H91.623V6H93.4746V6.94922H93.498C93.9395 6.21875 94.582 5.85352 95.4258 5.85352C96.7539 5.85352 97.418 6.67773 97.418 8.32617V12ZM104.279 9.52734H100.365C100.428 10.3984 100.977 10.834 102.012 10.834C102.672 10.834 103.252 10.6777 103.752 10.3652V11.7012C103.197 11.998 102.477 12.1465 101.59 12.1465C100.621 12.1465 99.8691 11.8789 99.334 11.3438C98.7988 10.8047 98.5312 10.0547 98.5312 9.09375C98.5312 8.09766 98.8203 7.30859 99.3984 6.72656C99.9766 6.14453 100.688 5.85352 101.531 5.85352C102.406 5.85352 103.082 6.11328 103.559 6.63281C104.039 7.15234 104.279 7.85742 104.279 8.74805V9.52734ZM102.562 8.39062C102.562 7.53125 102.215 7.10156 101.52 7.10156C101.223 7.10156 100.965 7.22461 100.746 7.4707C100.531 7.7168 100.4 8.02344 100.354 8.39062H102.562ZM104.988 11.8418V10.3418C105.293 10.5254 105.596 10.6621 105.896 10.752C106.201 10.8418 106.488 10.8867 106.758 10.8867C107.086 10.8867 107.344 10.8418 107.531 10.752C107.723 10.6621 107.818 10.5254 107.818 10.3418C107.818 10.2246 107.775 10.127 107.689 10.0488C107.604 9.9707 107.492 9.90234 107.355 9.84375C107.223 9.78516 107.076 9.73242 106.916 9.68555C106.756 9.63867 106.602 9.58594 106.453 9.52734C106.215 9.4375 106.004 9.3418 105.82 9.24023C105.641 9.13477 105.488 9.01367 105.363 8.87695C105.242 8.74023 105.148 8.58203 105.082 8.40234C105.02 8.22266 104.988 8.00977 104.988 7.76367C104.988 7.42773 105.061 7.13867 105.205 6.89648C105.354 6.6543 105.549 6.45703 105.791 6.30469C106.037 6.14844 106.316 6.03516 106.629 5.96484C106.945 5.89062 107.273 5.85352 107.613 5.85352C107.879 5.85352 108.148 5.875 108.422 5.91797C108.695 5.95703 108.965 6.01562 109.23 6.09375V7.52344C108.996 7.38672 108.744 7.28516 108.475 7.21875C108.209 7.14844 107.947 7.11328 107.689 7.11328C107.568 7.11328 107.453 7.125 107.344 7.14844C107.238 7.16797 107.145 7.19922 107.062 7.24219C106.98 7.28125 106.916 7.33398 106.869 7.40039C106.822 7.46289 106.799 7.53516 106.799 7.61719C106.799 7.72656 106.834 7.82031 106.904 7.89844C106.975 7.97656 107.066 8.04492 107.18 8.10352C107.293 8.1582 107.418 8.20898 107.555 8.25586C107.695 8.29883 107.834 8.34375 107.971 8.39062C108.217 8.47656 108.439 8.57031 108.639 8.67188C108.838 8.77344 109.008 8.89258 109.148 9.0293C109.293 9.16602 109.402 9.32617 109.477 9.50977C109.555 9.69336 109.594 9.91211 109.594 10.166C109.594 10.5215 109.516 10.8262 109.359 11.0801C109.207 11.3301 109.002 11.5352 108.744 11.6953C108.49 11.8516 108.195 11.9648 107.859 12.0352C107.527 12.1094 107.182 12.1465 106.822 12.1465C106.162 12.1465 105.551 12.0449 104.988 11.8418Z" fill="#B6CFE5"/>
<defs>
<linearGradient id="paint0_linear_353_45405" x1="14" y1="2" x2="2.5" y2="14" gradientUnits="userSpaceOnUse">
<stop stop-color="#F7D4F7"/>
<stop offset="1" stop-color="#C4A1C4"/>
</linearGradient>
<clipPath id="clip0_353_45405">
<rect width="16" height="16" fill="white"/>
</clipPath>
</defs>
</svg>
