<svg width="12" height="11" viewBox="0 0 12 11" fill="none" xmlns="http://www.w3.org/2000/svg">
<path d="M2.19629 0.801758V1.5166H0.711914V9.59082H2.19629V10.3076H0V0.801758H2.19629ZM9.49609 10.3076H7.2998V9.59082H8.78418V1.5166H7.2998V0.800781H9.49609V10.3076ZM5.33789 2.63477C6.28907 2.63501 7.06344 3.4099 7.06348 4.3623C7.06348 4.75559 6.93001 5.1174 6.70801 5.4082C7.0943 5.72531 7.34082 6.20641 7.34082 6.74414C7.34082 7.69669 6.56695 8.47162 5.61523 8.47168H2.18262V2.63477H5.33789ZM3.61426 7.39844H5.18359C5.5438 7.39837 5.83691 7.10474 5.83691 6.74414C5.83691 6.38354 5.5438 6.08991 5.18359 6.08984H3.61426V7.39844ZM3.61426 5.0166H5.05469C5.41494 5.01637 5.70801 4.72299 5.70801 4.3623C5.70797 4.00184 5.41492 3.70921 5.05469 3.70898H3.61426V5.0166ZM11.126 0C11.3708 0 11.573 0.0665724 11.7305 0.199219C11.8878 0.331545 11.9667 0.500033 11.9668 0.705078C11.9668 0.892809 11.8896 1.03653 11.7354 1.13574C11.9117 1.23532 12 1.38817 12 1.59375C11.9999 1.80561 11.9188 1.97936 11.7568 2.11523C11.5946 2.25081 11.3864 2.31934 11.1328 2.31934C10.8945 2.31931 10.6933 2.25589 10.5293 2.12988C10.3658 2.00459 10.2677 1.83319 10.2363 1.61621H10.8799C10.9285 1.74147 11.014 1.80563 11.1396 1.80566C11.2167 1.80566 11.28 1.78493 11.3301 1.74414C11.3794 1.70318 11.4043 1.64912 11.4043 1.58301C11.4042 1.51927 11.3801 1.46832 11.332 1.42969C11.2835 1.39098 11.2158 1.37115 11.1299 1.37109H10.9121V0.920898H11.1133C11.1949 0.920878 11.2602 0.902751 11.3086 0.866211C11.3568 0.829939 11.3807 0.781919 11.3809 0.722656C11.3809 0.656455 11.3586 0.603137 11.3135 0.563477C11.2684 0.523679 11.2071 0.502999 11.1299 0.50293C11.0529 0.50293 10.9892 0.529806 10.9395 0.583008C10.9098 0.614695 10.8885 0.657142 10.873 0.708008H10.2598C10.2952 0.485607 10.3906 0.312155 10.5459 0.1875C10.7013 0.0628216 10.8943 6.78929e-05 11.126 0Z" fill="#154096"/>
</svg>
