<svg width="16" height="16" viewBox="0 0 16 16" fill="none" xmlns="http://www.w3.org/2000/svg">
<path d="M10.5318 3.12589C10.5465 3.13126 11.0851 3.66357 11.735 4.31339L12.9225 5.50089L10.2506 8.17277C8.46372 9.95964 8.54735 9.85411 8.48497 9.87589C8.24747 9.94777 6.00626 10.3691 5.93126 10.3534C5.822 10.3313 5.69743 10.2066 5.67247 10.1005C5.66336 10.0494 5.76016 9.49681 5.90684 8.76652C6.0437 8.08532 6.1558 7.51542 6.15684 7.50089C6.15684 7.49464 6.3627 7.27843 7.83458 5.80656C9.30954 4.33159 10.5225 3.12589 10.5318 3.12589ZM12.8131 1.10343C13.0413 1.02534 13.4975 1.00696 13.7506 1.06632C14.2943 1.19134 14.8068 1.69759 14.9537 2.25382C15.0162 2.48197 15.0133 2.9476 14.9508 3.16007C14.8445 3.51943 14.7322 3.67908 14.151 4.26652L13.5973 4.82902L12.401 3.63175L11.2037 2.43839L11.7506 1.89445C12.3162 1.33507 12.4693 1.21906 12.8131 1.10343Z" fill="url(#paint0_linear_400_37799)"/>
<path d="M8.5 2.49219H4.5C3.39543 2.49219 2.5 3.38762 2.5 4.49219V11.4922C2.5 12.5968 3.39543 13.4922 4.5 13.4922H11.5C12.6046 13.4922 13.5 12.5968 13.5 11.4922V9.09219" stroke="url(#paint1_linear_400_37799)" stroke-linecap="round"/>
<defs>
<linearGradient id="paint0_linear_400_37799" x1="10.3355" y1="1.03125" x2="10.3355" y2="10.3539" gradientUnits="userSpaceOnUse">
<stop stop-color="#DFDFDF"/>
<stop offset="1" stop-color="#B1B1B1"/>
</linearGradient>
<linearGradient id="paint1_linear_400_37799" x1="8" y1="2.49219" x2="8" y2="13.4922" gradientUnits="userSpaceOnUse">
<stop stop-color="#DFDFDF"/>
<stop offset="1" stop-color="#B1B1B1"/>
</linearGradient>
</defs>
</svg>
