<svg width="14" height="14" viewBox="0 0 14 14" fill="none" xmlns="http://www.w3.org/2000/svg">
<g clip-path="url(#clip0_406_45843)">
<rect width="14" height="14" rx="2" fill="#4CAF50"/>
<path d="M-2.82422 6.99918L6.99909 13.2717L16.8225 6.99918L6.99909 0.726562L-2.82422 6.99918Z" fill="#FDD835"/>
<path d="M6.99909 2.85742C7.81823 2.85742 8.61898 3.10033 9.30008 3.55542C9.98117 4.01051 10.512 4.65735 10.8255 5.41414C11.139 6.17093 11.221 7.00368 11.0612 7.80709C10.9014 8.61049 10.5069 9.34847 9.92769 9.92769C9.34847 10.5069 8.61049 10.9014 7.80709 11.0612C7.00368 11.221 6.17093 11.139 5.41414 10.8255C4.65735 10.512 4.01051 9.98117 3.55542 9.30008C3.10033 8.61898 2.85742 7.81823 2.85742 6.99909C2.85742 5.90065 3.29377 4.8472 4.07049 4.07049C4.8472 3.29377 5.90065 2.85742 6.99909 2.85742V2.85742Z" fill="#1565C0"/>
<path d="M4.63212 5.8167C4.07095 5.81674 3.52546 5.86659 2.98047 5.96381C3.04852 5.71916 3.09173 5.58113 3.20797 5.3297C3.68715 5.25989 4.14514 5.22461 4.63155 5.22461C5.95272 5.22453 7.26084 5.4847 8.48147 5.99023C9.42962 6.38292 10.3105 6.91769 11.0944 7.57471C11.1362 7.60971 11.0532 7.54959 11.0944 7.58529C11.0889 7.83781 11.0449 7.98082 10.9537 8.23604C10.922 8.20752 10.9643 8.24552 10.9537 8.23604C9.2212 6.68227 6.97131 5.8167 4.63212 5.8167Z" fill="white"/>
</g>
<defs>
<clipPath id="clip0_406_45843">
<rect width="14" height="14" rx="2" fill="white"/>
</clipPath>
</defs>
</svg>
