<svg width="16" height="16" viewBox="0 0 16 16" fill="none" xmlns="http://www.w3.org/2000/svg">
<g clip-path="url(#clip0_406_46264)">
<circle cx="8" cy="8" r="8" fill="url(#paint0_linear_406_46264)"/>
<path d="M9 3H7V5H5V6H4V10H5V11H7V13H9V11H11V10H12V9H10V10H6V6H10V7H12V6H11V5H9V3Z" fill="#503D22"/>
<path d="M4 5H5V6H4V5Z" fill="black" fill-opacity="0.2"/>
<path d="M11 5H12V6H11V5Z" fill="black" fill-opacity="0.2"/>
<path d="M11 10H12V11H11V10Z" fill="black" fill-opacity="0.2"/>
<path d="M4 10H5V11H4V10Z" fill="black" fill-opacity="0.2"/>
</g>
<defs>
<linearGradient id="paint0_linear_406_46264" x1="8" y1="0" x2="8" y2="16" gradientUnits="userSpaceOnUse">
<stop stop-color="#F1C437"/>
<stop offset="1" stop-color="#B48A12"/>
</linearGradient>
<clipPath id="clip0_406_46264">
<rect width="16" height="16" fill="white"/>
</clipPath>
</defs>
</svg>
