<svg width="16" height="16" viewBox="0 0 16 16" fill="none" xmlns="http://www.w3.org/2000/svg">
<path d="M7 4H6V5H7V4Z" fill="white" fill-opacity="0.2"/>
<path d="M9 4H7V3H9V4Z" fill="white" fill-opacity="0.2"/>
<path d="M10 5V4H9V5H10Z" fill="white" fill-opacity="0.2"/>
<path d="M6 4V5H5V4H6Z" fill="#DFDFDF"/>
<path d="M7 3H6V4H7V3Z" fill="#DFDFDF"/>
<path d="M9 3H7V2H9V3Z" fill="#DFDFDF"/>
<path d="M10 4H9V3H10V4Z" fill="#DFDFDF"/>
<path d="M11 5V4H10V5H11Z" fill="#DFDFDF"/>
<path d="M7 12H6V11H7V12Z" fill="white" fill-opacity="0.2"/>
<path d="M9 12H7V13H9V12Z" fill="white" fill-opacity="0.2"/>
<path d="M10 11V12H9V11H10Z" fill="white" fill-opacity="0.2"/>
<path d="M6 12V11H5V12H6Z" fill="#DFDFDF"/>
<path d="M7 13H6V12H7V13Z" fill="#DFDFDF"/>
<path d="M9 13H7V14H9V13Z" fill="#DFDFDF"/>
<path d="M10 12H9V13H10V12Z" fill="#DFDFDF"/>
<path d="M11 11V12H10V11H11Z" fill="#DFDFDF"/>
</svg>
