<svg width="16" height="16" viewBox="0 0 16 16" fill="none" xmlns="http://www.w3.org/2000/svg">
<path d="M7 0H14C15.1046 0 16 0.895431 16 2V14C16 15.1046 15.1046 16 14 16H7V0Z" fill="url(#paint0_linear_406_46787)"/>
<path d="M7 0L2 -4.37114e-07C0.895431 -5.33678e-07 1.35223e-06 0.89543 1.25567e-06 2L2.06593e-07 14C1.10028e-07 15.1046 0.89543 16 2 16L7 16L7 0Z" fill="url(#paint1_linear_406_46787)"/>
<rect x="12" y="7" width="2" height="2" fill="#00BB64"/>
<rect x="9" y="7" width="2" height="2" fill="#FFB800"/>
<rect x="9" y="11" width="5" height="2" fill="#FF2C2A"/>
<rect x="9" y="3" width="5" height="2" fill="#AFAFAF"/>
<defs>
<linearGradient id="paint0_linear_406_46787" x1="11.5" y1="0" x2="11.5" y2="16" gradientUnits="userSpaceOnUse">
<stop stop-color="#3A3C3C"/>
<stop offset="1" stop-color="#010101"/>
</linearGradient>
<linearGradient id="paint1_linear_406_46787" x1="3.5" y1="-3.3149e-07" x2="3.5" y2="16" gradientUnits="userSpaceOnUse">
<stop stop-color="#00E7F7"/>
<stop offset="1" stop-color="#51C3F1"/>
</linearGradient>
</defs>
</svg>
