<svg width="16" height="16" viewBox="0 0 16 16" fill="none" xmlns="http://www.w3.org/2000/svg">
<path fill-rule="evenodd" clip-rule="evenodd" d="M3 1C1.89543 1 1 1.89543 1 3V6.5034L1.05495 6.44845L1.06079 6.44279C1.33225 6.18002 1.68679 6.02005 2.06344 5.99039C2.37742 5.96567 2.6904 6.03279 2.965 6.18155C3.05433 5.86661 3.23718 5.58459 3.49123 5.37398C3.78678 5.12896 4.15946 4.99656 4.54315 5.00007H5.39437C5.77806 4.99656 6.15074 5.12896 6.44629 5.37398C6.69794 5.58259 6.87972 5.86129 6.96996 6.17263C7.2554 6.00569 7.58605 5.92927 7.91783 5.95539C8.29447 5.98505 8.64901 6.14502 8.92048 6.40779L8.92632 6.41345L9.56482 7.05195C9.83131 7.32435 9.99353 7.68178 10.0232 8.06168C10.0488 8.38885 9.97467 8.71481 9.8125 8.99732C10.1286 9.08568 10.4117 9.2681 10.6233 9.522C10.8667 9.81409 11 10.1823 10.9999 10.5625V11.4476C11.0034 11.8315 10.8708 12.2044 10.6254 12.5C10.424 12.7427 10.1575 12.9202 9.8594 13.0133C10.0063 13.2865 10.0726 13.5975 10.0482 13.9096C10.0185 14.2895 9.85626 14.6469 9.58978 14.9193L9.5821 14.9271L9.5092 15H13C14.1046 15 15 14.1046 15 13V3C15 1.89543 14.1046 1 13 1H3ZM7.98218 15C8.08241 14.9718 8.17464 14.9187 8.24996 14.8449L8.87495 14.22C8.97744 14.1152 9.03986 13.9777 9.05128 13.8316C9.0627 13.6855 9.02241 13.54 8.93745 13.4206L8.49996 12.8712C8.61804 12.6574 8.71235 12.4312 8.7812 12.1969L9.48119 12.0781C9.62794 12.0528 9.76083 11.976 9.85593 11.8614C9.95103 11.7468 10.0021 11.602 9.99993 11.4531V10.5625C9.99998 10.4162 9.94872 10.2746 9.85507 10.1622C9.76143 10.0498 9.63133 9.97384 9.48744 9.94751L8.7812 9.82877C8.714 9.58443 8.61967 9.34838 8.49996 9.12502L8.91245 8.55066C8.99741 8.43123 9.0377 8.28575 9.02628 8.13963C9.01485 7.99352 8.95244 7.85606 8.84995 7.75129L8.22496 7.1263C8.12055 7.02524 7.98419 6.96371 7.83933 6.9523C7.69447 6.9409 7.55016 6.98032 7.43122 7.0638L6.87498 7.50005C6.64922 7.38038 6.41278 7.28204 6.16874 7.2063L6.02499 6.51819C5.99956 6.37156 5.92264 6.23881 5.80807 6.14384C5.69351 6.04886 5.54881 5.99788 5.4 6.00007H4.53752C4.38871 5.99788 4.24401 6.04886 4.12944 6.14384C4.01488 6.23881 3.93796 6.37156 3.91253 6.51819L3.80628 7.25005C3.57124 7.31478 3.34309 7.40228 3.12504 7.5113L2.55005 7.0988C2.43111 7.01532 2.2868 6.9759 2.14194 6.9873C1.99707 6.99871 1.86071 7.06024 1.75631 7.1613L1.13132 7.78629C1.07523 7.84268 1.03087 7.90879 1 7.9808V8.47329C1.01683 8.51255 1.03774 8.55023 1.06257 8.58566L1.48131 9.16628C1.36836 9.3871 1.27428 9.61709 1.20007 9.85377L1 9.8865V12.1524L1.25006 12.1837C1.31532 12.4208 1.40322 12.651 1.51256 12.8712L1.10007 13.4456C1.08696 13.4646 1.07498 13.4842 1.06413 13.5043C1.25124 14.2246 1.82963 14.787 2.55879 14.9512C2.56852 14.9452 2.57811 14.939 2.58754 14.9324L3.17504 14.5137C3.37586 14.6198 3.58486 14.7097 3.80003 14.7824L3.83697 15H6.1443L6.18124 14.7824C6.42139 14.7097 6.65376 14.6134 6.87498 14.495L7.44997 14.9074C7.50899 14.9495 7.5744 14.9806 7.6431 15H7.98218ZM6 11C6 11.5523 5.55229 12 5 12C4.44772 12 4 11.5523 4 11C4 10.4477 4.44772 10 5 10C5.55229 10 6 10.4477 6 11ZM5 13C6.10457 13 7 12.1046 7 11C7 9.89543 6.10457 9 5 9C3.89543 9 3 9.89543 3 11C3 12.1046 3.89543 13 5 13Z" fill="url(#paint0_linear_406_46745)"/>
<path fill-rule="evenodd" clip-rule="evenodd" d="M8.7812 9.82877L9.48744 9.94751C9.63133 9.97384 9.76143 10.0498 9.85508 10.1622C9.94872 10.2746 9.99998 10.4162 9.99994 10.5625V11.4531C10.0021 11.602 9.95103 11.7468 9.85593 11.8614C9.76083 11.976 9.62794 12.0528 9.48119 12.0781L8.7812 12.1969C8.71235 12.4312 8.61804 12.6574 8.49996 12.8712L8.93745 13.4206C9.02241 13.54 9.0627 13.6855 9.05128 13.8316C9.03986 13.9777 8.97744 14.1152 8.87495 14.22L8.24996 14.8449C8.14515 14.9476 8.00758 15.0101 7.86132 15.0215C7.71507 15.033 7.56945 14.9926 7.44997 14.9074L6.87498 14.495C6.65376 14.6134 6.42139 14.7097 6.18124 14.7824L6.06249 15.4818C6.03706 15.6284 5.96014 15.7612 5.84557 15.8562C5.73101 15.9511 5.58631 16.0021 5.4375 15.9999H4.54377C4.39496 16.0021 4.25026 15.9511 4.13569 15.8562C4.02113 15.7612 3.94421 15.6284 3.91878 15.4818L3.80003 14.7824C3.58486 14.7097 3.37586 14.6198 3.17504 14.5137L2.58754 14.9324C2.46791 15.0151 2.32318 15.0535 2.1783 15.0409C2.03342 15.0284 1.89745 14.9657 1.79381 14.8637L1.16882 14.2387C1.06696 14.1351 1.00438 13.9993 0.991831 13.8545C0.979284 13.7098 1.01756 13.5652 1.10007 13.4456L1.51256 12.8712C1.40322 12.651 1.31532 12.4208 1.25006 12.1837L0.512576 12.0912C0.366979 12.0646 0.235556 11.9872 0.141706 11.8727C0.0478553 11.7583 -0.00233072 11.6142 8.31925e-05 11.4662V10.5913C-0.00233072 10.4433 0.0478553 10.2992 0.141706 10.1848C0.235556 10.0703 0.366979 9.99289 0.512576 9.96626L1.20007 9.85377C1.27428 9.61709 1.36836 9.3871 1.48131 9.16627L1.06257 8.58566C0.978405 8.46553 0.939175 8.31963 0.951743 8.17349C0.964312 8.02735 1.02788 7.89029 1.13132 7.78629L1.75631 7.1613C1.86071 7.06024 1.99707 6.99871 2.14194 6.9873C2.2868 6.9759 2.43111 7.01532 2.55005 7.0988L3.12504 7.5113C3.34309 7.40228 3.57125 7.31478 3.80628 7.25005L3.91253 6.51819C3.93796 6.37156 4.01488 6.23881 4.12945 6.14384C4.24401 6.04886 4.38871 5.99788 4.53752 6.00007H5.4C5.54881 5.99788 5.69351 6.04886 5.80808 6.14384C5.92264 6.23881 5.99956 6.37156 6.02499 6.51819L6.16874 7.2063C6.41278 7.28204 6.64922 7.38038 6.87498 7.50005L7.43122 7.0638C7.55016 6.98032 7.69447 6.9409 7.83933 6.9523C7.98419 6.96371 8.12055 7.02524 8.22496 7.1263L8.84995 7.75129C8.95244 7.85606 9.01486 7.99352 9.02628 8.13963C9.0377 8.28575 8.99741 8.43123 8.91245 8.55066L8.49996 9.12503C8.61967 9.34838 8.714 9.58443 8.7812 9.82877ZM5 13C6.10457 13 7 12.1046 7 11C7 9.89543 6.10457 9 5 9C3.89543 9 3 9.89543 3 11C3 12.1046 3.89543 13 5 13Z" fill="url(#paint1_linear_406_46745)"/>
<path fill-rule="evenodd" clip-rule="evenodd" d="M8.7812 9.82877L9.48744 9.94751C9.63133 9.97384 9.76143 10.0498 9.85508 10.1622C9.94872 10.2746 9.99998 10.4162 9.99994 10.5625V11.4531C10.0021 11.602 9.95103 11.7468 9.85593 11.8614C9.76083 11.976 9.62794 12.0528 9.48119 12.0781L8.7812 12.1969C8.71235 12.4312 8.61804 12.6574 8.49996 12.8712L8.93745 13.4206C9.02241 13.54 9.0627 13.6855 9.05128 13.8316C9.03986 13.9777 8.97744 14.1152 8.87495 14.22L8.24996 14.8449C8.14515 14.9476 8.00758 15.0101 7.86132 15.0215C7.71507 15.033 7.56945 14.9926 7.44997 14.9074L6.87498 14.495C6.65376 14.6134 6.42139 14.7097 6.18124 14.7824L6.06249 15.4818C6.03706 15.6284 5.96014 15.7612 5.84557 15.8562C5.73101 15.9511 5.58631 16.0021 5.4375 15.9999H4.54377C4.39496 16.0021 4.25026 15.9511 4.13569 15.8562C4.02113 15.7612 3.94421 15.6284 3.91878 15.4818L3.80003 14.7824C3.58486 14.7097 3.37586 14.6198 3.17504 14.5137L2.58754 14.9324C2.46791 15.0151 2.32318 15.0535 2.1783 15.0409C2.03342 15.0284 1.89745 14.9657 1.79381 14.8637L1.16882 14.2387C1.06696 14.1351 1.00438 13.9993 0.991831 13.8545C0.979284 13.7098 1.01756 13.5652 1.10007 13.4456L1.51256 12.8712C1.40322 12.651 1.31532 12.4208 1.25006 12.1837L0.512576 12.0912C0.366979 12.0646 0.235556 11.9872 0.141706 11.8727C0.0478553 11.7583 -0.00233072 11.6142 8.31925e-05 11.4662V10.5913C-0.00233072 10.4433 0.0478553 10.2992 0.141706 10.1848C0.235556 10.0703 0.366979 9.99289 0.512576 9.96626L1.20007 9.85377C1.27428 9.61709 1.36836 9.3871 1.48131 9.16627L1.06257 8.58566C0.978405 8.46553 0.939175 8.31963 0.951743 8.17349C0.964312 8.02735 1.02788 7.89029 1.13132 7.78629L1.75631 7.1613C1.86071 7.06024 1.99707 6.99871 2.14194 6.9873C2.2868 6.9759 2.43111 7.01532 2.55005 7.0988L3.12504 7.5113C3.34309 7.40228 3.57125 7.31478 3.80628 7.25005L3.91253 6.51819C3.93796 6.37156 4.01488 6.23881 4.12945 6.14384C4.24401 6.04886 4.38871 5.99788 4.53752 6.00007H5.4C5.54881 5.99788 5.69351 6.04886 5.80808 6.14384C5.92264 6.23881 5.99956 6.37156 6.02499 6.51819L6.16874 7.2063C6.41278 7.28204 6.64922 7.38038 6.87498 7.50005L7.43122 7.0638C7.55016 6.98032 7.69447 6.9409 7.83933 6.9523C7.98419 6.96371 8.12055 7.02524 8.22496 7.1263L8.84995 7.75129C8.95244 7.85606 9.01486 7.99352 9.02628 8.13963C9.0377 8.28575 8.99741 8.43123 8.91245 8.55066L8.49996 9.12503C8.61967 9.34838 8.714 9.58443 8.7812 9.82877ZM5 13C6.10457 13 7 12.1046 7 11C7 9.89543 6.10457 9 5 9C3.89543 9 3 9.89543 3 11C3 12.1046 3.89543 13 5 13Z" fill="white" fill-opacity="0.2"/>
<path d="M3 1C1.89543 1 1 1.89543 1 3V5.99664C1.5 6 2.34587 6 3 6C3.10061 5.75854 3.25877 5.5432 3.46291 5.37398C3.75846 5.12896 4.13113 4.99656 4.51483 5.00007H5.36604C5.74974 4.99656 6.12241 5.12896 6.41796 5.37398C6.62209 5.5432 6.78025 5.75853 6.88087 6H7.36343C7.53393 5.95687 7.71156 5.94138 7.8895 5.95539C7.98144 5.96263 8.07206 5.97763 8.16047 6H15V3C15 1.89543 14.1046 1 13 1H3Z" fill="url(#paint2_linear_406_46745)"/>
<rect x="4" y="10" width="2" height="2" rx="1" fill="#292929"/>
<defs>
<linearGradient id="paint0_linear_406_46745" x1="8" y1="1" x2="8" y2="15" gradientUnits="userSpaceOnUse">
<stop stop-color="#DFDFDF"/>
<stop offset="1" stop-color="#B1B1B1"/>
</linearGradient>
<linearGradient id="paint1_linear_406_46745" x1="5" y1="6" x2="5" y2="16" gradientUnits="userSpaceOnUse">
<stop stop-color="#2699FA"/>
<stop offset="1" stop-color="#0078D7"/>
</linearGradient>
<linearGradient id="paint2_linear_406_46745" x1="7" y1="1" x2="7" y2="6.25" gradientUnits="userSpaceOnUse">
<stop stop-color="#00E7F7"/>
<stop offset="1" stop-color="#51C3F1"/>
</linearGradient>
</defs>
</svg>
