<svg width="16" height="16" viewBox="0 0 16 16" fill="none" xmlns="http://www.w3.org/2000/svg">
<path d="M8.208 5.127C8.93441 5.10653 9.6393 5.37495 10.1681 5.8734C10.6969 6.37184 11.0065 7.05965 11.029 7.786C11.0294 8.12058 10.9614 8.45171 10.829 8.759L12.477 10.312C13.3263 9.64875 13.9918 8.77916 14.41 7.786C13.8811 6.5849 13.01 5.56627 11.9056 4.85736C10.8011 4.14845 9.51225 3.78068 8.2 3.8C7.43628 3.79948 6.67773 3.92518 5.955 4.172L7.136 5.288C7.48112 5.17175 7.84394 5.11692 8.208 5.126V5.127ZM2.564 3.674L3.852 4.888L4.111 5.133C3.17901 5.80875 2.44912 6.72604 2 7.786C2.52847 8.98715 3.39912 10.006 4.5032 10.7152C5.60728 11.4245 6.89586 11.7928 8.208 11.774C9.05221 11.7753 9.8897 11.6238 10.68 11.327L10.917 11.55L12.57 13.1L13.286 12.426L3.281 3L2.564 3.674ZM5.685 6.616L6.56 7.44C6.53082 7.55304 6.51571 7.66925 6.515 7.786C6.52069 8.00235 6.56905 8.21545 6.65729 8.41306C6.74554 8.61068 6.87193 8.78893 7.02923 8.93758C7.18652 9.08624 7.37162 9.20237 7.5739 9.27932C7.77619 9.35627 7.99167 9.39253 8.208 9.386C8.33154 9.38517 8.45461 9.37075 8.575 9.343L9.45 10.167C9.06161 10.3507 8.63764 10.447 8.208 10.449C7.48125 10.4697 6.77595 10.2013 6.24689 9.70261C5.71783 9.20392 5.40822 8.51571 5.386 7.789C5.38956 7.38075 5.49253 6.97951 5.686 6.62L5.685 6.616ZM8.117 6.2L9.894 7.874L9.9 7.79C9.88589 7.35587 9.70054 6.94496 9.38445 6.64705C9.06836 6.34913 8.64721 6.18841 8.213 6.2H8.117Z" fill="url(#paint0_linear_481_41582)"/>
<defs>
<linearGradient id="paint0_linear_481_41582" x1="8.205" y1="3" x2="8.205" y2="13.1" gradientUnits="userSpaceOnUse">
<stop stop-color="#DFDFDF"/>
<stop offset="1" stop-color="#B1B1B1"/>
</linearGradient>
</defs>
</svg>
