<svg width="16" height="16" viewBox="0 0 16 16" fill="none" xmlns="http://www.w3.org/2000/svg">
<rect width="16" height="16" rx="2" fill="url(#paint0_linear_406_46224)"/>
<path d="M4.56024 13H3.27313C2.62513 12.9997 2.1488 12.3923 2.30243 11.7627L4.44012 3H7.00067L4.56024 13ZM8.00067 13H5.50067L8.00067 3H10.5007L8.00067 13ZM11.5007 13H9.00067L10.7507 6H13.2507L11.5007 13ZM13.5007 3C13.7544 3.00025 13.9411 3.23912 13.8796 3.48535L13.5007 5H11.0007L11.5007 3H13.5007Z" fill="#D9D9D9"/>
<path d="M4.56024 13H3.27313C2.62513 12.9997 2.1488 12.3923 2.30243 11.7627L4.44012 3H7.00067L4.56024 13ZM8.00067 13H5.50067L8.00067 3H10.5007L8.00067 13ZM11.5007 13H9.00067L10.7507 6H13.2507L11.5007 13ZM13.5007 3C13.7544 3.00025 13.9411 3.23912 13.8796 3.48535L13.5007 5H11.0007L11.5007 3H13.5007Z" fill="url(#paint1_linear_406_46224)"/>
<path d="M4.56024 13H3.27313C2.62513 12.9997 2.1488 12.3923 2.30243 11.7627L4.44012 3H7.00067L4.56024 13ZM8.00067 13H5.50067L8.00067 3H10.5007L8.00067 13ZM11.5007 13H9.00067L10.7507 6H13.2507L11.5007 13ZM13.5007 3C13.7544 3.00025 13.9411 3.23912 13.8796 3.48535L13.5007 5H11.0007L11.5007 3H13.5007Z" fill="url(#paint2_linear_406_46224)" fill-opacity="0.8"/>
<path d="M4.56024 13H3.27313C2.62513 12.9997 2.1488 12.3923 2.30243 11.7627L4.44012 3H7.00067L4.56024 13ZM8.00067 13H5.50067L8.00067 3H10.5007L8.00067 13ZM11.5007 13H9.00067L10.7507 6H13.2507L11.5007 13ZM13.5007 3C13.7544 3.00025 13.9411 3.23912 13.8796 3.48535L13.5007 5H11.0007L11.5007 3H13.5007Z" fill="white"/>
<defs>
<linearGradient id="paint0_linear_406_46224" x1="16" y1="-4.76837e-07" x2="8" y2="16" gradientUnits="userSpaceOnUse">
<stop stop-color="#1684C9"/>
<stop offset="1" stop-color="#0C4ECB"/>
</linearGradient>
<linearGradient id="paint1_linear_406_46224" x1="1.99657" y1="-1.0004" x2="22.3732" y2="0.737809" gradientUnits="userSpaceOnUse">
<stop stop-color="#1F42BF"/>
<stop offset="0.497537" stop-color="#8539B0"/>
</linearGradient>
<linearGradient id="paint2_linear_406_46224" x1="-2.57063" y1="5.5" x2="13.1312" y2="9.61258" gradientUnits="userSpaceOnUse">
<stop/>
<stop offset="0.0001"/>
<stop offset="1" stop-opacity="0"/>
</linearGradient>
</defs>
</svg>
