<svg width="16" height="16" viewBox="0 0 16 16" fill="none" xmlns="http://www.w3.org/2000/svg">
<g clip-path="url(#clip0_400_31475)">
<path fill-rule="evenodd" clip-rule="evenodd" d="M8.61563 0.216285C8.67813 0.178785 8.80625 0.11316 8.90312 0.0756598C9.13125 -0.0212154 9.53125 -0.0274639 9.80937 0.0600348C10.4375 0.25691 10.7063 0.681911 10.8125 1.65691C10.8906 2.35691 10.7469 3.78504 10.4531 5.21628C10.4094 5.42878 10.375 5.60691 10.375 5.61316C10.375 5.61941 11.1938 5.62566 12.1969 5.62566C13.6906 5.62566 14.05 5.63503 14.2125 5.67253C14.9438 5.84441 15.5 6.53816 15.5 7.28191C15.5 7.49753 15.4156 7.84128 15.3188 8.03191L15.2312 8.20378L15.4875 8.45378C15.6531 8.61628 15.7688 8.76316 15.8219 8.87566C16.1719 9.61316 15.9969 10.4413 15.3844 10.9382L15.225 11.0694L15.3188 11.2507C15.4187 11.4538 15.5 11.785 15.5 12.0007C15.5 12.2225 15.4187 12.5382 15.3125 12.7538C15.1969 12.9788 14.9219 13.285 14.7281 13.3975C14.6531 13.4413 14.5938 13.485 14.5938 13.4944C14.5938 13.5038 14.6219 13.5694 14.6562 13.6382C14.8125 13.9632 14.8531 14.3788 14.7625 14.7507C14.6281 15.3257 14.1062 15.8413 13.5312 15.9694C13.2531 16.0288 8.20625 15.9944 7.6875 15.9288C6.52187 15.7819 5.64375 15.5913 4.66563 15.2819L4.25 15.1538V10.8663V6.57878L4.5875 6.31316C5.71875 5.41628 6.55 4.51628 6.92188 3.78504C6.96875 3.69129 7.2375 3.01003 7.52187 2.26941C7.80312 1.52878 8.075 0.853786 8.11875 0.76941C8.22188 0.578785 8.46562 0.310035 8.61563 0.216285ZM0.162591 7.13486C0.203216 7.09736 0.293841 7.05049 0.359466 7.03486C0.428216 7.01924 1.12822 7.00674 1.91572 7.00361L3.34384 7.00049V10.9692V14.938H1.85322C0.501656 14.938 0.267386 14.94 0.148619 14.8239C0.121021 14.797 0.09966 14.7636 0.0719657 14.7224L9.07014e-05 14.6161V10.9942C9.07014e-05 7.54209 -0.00721958 7.3016 0.109417 7.18283C0.124866 7.1671 0.142489 7.1535 0.162591 7.13486Z" fill="#485866"/>
</g>
<defs>
<clipPath id="clip0_400_31475">
<rect width="16" height="16" fill="white"/>
</clipPath>
</defs>
</svg>
