<svg width="16" height="16" viewBox="0 0 16 16" fill="none" xmlns="http://www.w3.org/2000/svg">
<path d="M8.02906 11.8173C7.62712 11.8173 7.23245 11.7779 6.84504 11.6991C6.45763 11.6159 6.10412 11.5129 5.7845 11.3903C5.46973 11.2633 5.20823 11.134 5 11.0026C5.00484 10.88 5.0339 10.7486 5.08717 10.6084C5.14528 10.4682 5.21792 10.339 5.30508 10.2208C5.39709 10.0981 5.49395 10.0083 5.59564 9.95138C5.92494 10.1485 6.30508 10.3215 6.73608 10.4704C7.17191 10.615 7.59806 10.6873 8.01453 10.6873C8.42615 10.6916 8.76513 10.615 9.03148 10.4573C9.29782 10.2996 9.43341 10.0718 9.43826 9.77398C9.4431 9.53307 9.3632 9.32063 9.19855 9.13666C9.0339 8.94831 8.76998 8.7972 8.40678 8.68331L6.99758 8.22996C6.47458 8.05913 6.05569 7.81822 5.74092 7.50723C5.42615 7.19623 5.26877 6.80201 5.26877 6.32457C5.26877 5.91283 5.38257 5.5449 5.61017 5.22076C5.84261 4.89663 6.16465 4.64258 6.57627 4.45861C6.98789 4.27026 7.46489 4.17608 8.00726 4.17608C8.55932 4.17608 9.06538 4.23522 9.52542 4.35348C9.98547 4.46737 10.3898 4.60972 10.7385 4.78055C10.7385 4.96452 10.6877 5.15506 10.586 5.35217C10.4891 5.54928 10.3632 5.71134 10.2082 5.83837C9.87409 5.67192 9.52784 5.54271 9.16949 5.45072C8.81598 5.35874 8.46489 5.31275 8.11622 5.31275C7.71913 5.31275 7.40194 5.39159 7.16465 5.54928C6.92736 5.70258 6.80872 5.91283 6.80872 6.18003C6.80872 6.43408 6.90073 6.62681 7.08475 6.75821C7.27361 6.88524 7.51574 6.99693 7.81114 7.0933L9.14044 7.53351C9.70702 7.71748 10.1574 7.98467 10.4915 8.33509C10.8305 8.6855 11 9.14104 11 9.70171C11 10.1091 10.8789 10.4748 10.6368 10.7989C10.3947 11.1187 10.0508 11.3684 9.60533 11.548C9.15981 11.7276 8.63438 11.8173 8.02906 11.8173ZM7.94189 13C7.69492 13 7.49395 12.9825 7.33898 12.9474V11.4428H8.53753V12.9474C8.39225 12.9825 8.1937 13 7.94189 13ZM7.48426 4.59658V3.05256C7.56659 3.03504 7.66102 3.0219 7.76755 3.01314C7.87893 3.00438 7.98547 3 8.08717 3C8.18886 3 8.29298 3.00438 8.39952 3.01314C8.5109 3.0219 8.60775 3.03504 8.69007 3.05256V4.59658H7.48426Z" fill="white"/>
</svg>
