<svg width="16" height="16" viewBox="0 0 16 16" fill="none" xmlns="http://www.w3.org/2000/svg">
<path d="M10.8125 8.625C12.0206 8.625 13 9.60438 13 10.8125C13 12.0206 12.0206 13 10.8125 13C9.60438 13 8.625 12.0206 8.625 10.8125C8.625 9.60438 9.60438 8.625 10.8125 8.625ZM4.31543 12.375H3L11.6846 3.625H13L4.31543 12.375ZM10.8125 9.5625C10.1221 9.5625 9.5625 10.1221 9.5625 10.8125C9.5625 11.5029 10.1221 12.0625 10.8125 12.0625C11.5029 12.0625 12.0625 11.5029 12.0625 10.8125C12.0625 10.1221 11.5029 9.5625 10.8125 9.5625ZM5.1875 3C6.39562 3 7.375 3.97938 7.375 5.1875C7.375 6.39562 6.39562 7.375 5.1875 7.375C3.97938 7.375 3 6.39562 3 5.1875C3 3.97938 3.97938 3 5.1875 3ZM5.1875 3.9375C4.49714 3.9375 3.9375 4.49714 3.9375 5.1875C3.9375 5.87786 4.49714 6.4375 5.1875 6.4375C5.87786 6.4375 6.4375 5.87786 6.4375 5.1875C6.4375 4.49714 5.87786 3.9375 5.1875 3.9375Z" fill="url(#paint0_linear_406_48141)"/>
<defs>
<linearGradient id="paint0_linear_406_48141" x1="8" y1="3" x2="8" y2="13" gradientUnits="userSpaceOnUse">
<stop stop-color="#DFDFDF"/>
<stop offset="1" stop-color="#B1B1B1"/>
</linearGradient>
</defs>
</svg>
