<svg width="16" height="16" viewBox="0 0 16 16" fill="none" xmlns="http://www.w3.org/2000/svg">
<path opacity="0.9" d="M8 16C6.41775 16 4.87103 15.5308 3.55544 14.6518C2.23985 13.7727 1.21447 12.5233 0.608967 11.0615C0.00346625 9.59966 -0.15496 7.99113 0.153721 6.43928C0.462403 4.88743 1.22433 3.46197 2.34315 2.34315C3.46197 1.22433 4.88743 0.462403 6.43928 0.153721C7.99113 -0.15496 9.59966 0.00346625 11.0615 0.608967C12.5233 1.21447 13.7727 2.23985 14.6518 3.55544C15.5308 4.87103 16 6.41775 16 8C16 10.1217 15.1571 12.1566 13.6569 13.6569C12.1566 15.1571 10.1217 16 8 16V16ZM8 1.55C6.72431 1.55 5.47727 1.92829 4.41658 2.63702C3.35588 3.34576 2.52917 4.35311 2.04098 5.5317C1.5528 6.71028 1.42506 8.00716 1.67394 9.25834C1.92281 10.5095 2.53712 11.6588 3.43916 12.5608C4.34121 13.4629 5.49049 14.0772 6.74167 14.3261C7.99285 14.5749 9.28973 14.4472 10.4683 13.959C11.6469 13.4708 12.6542 12.6441 13.363 11.5834C14.0717 10.5227 14.45 9.27569 14.45 8C14.45 6.28936 13.7705 4.64877 12.5608 3.43916C11.3512 2.22956 9.71065 1.55 8 1.55V1.55Z" fill="url(#paint0_linear_406_46067)"/>
<path opacity="0.9" d="M11 9H7V4H9V7H11V9Z" fill="url(#paint1_linear_406_46067)"/>
<defs>
<linearGradient id="paint0_linear_406_46067" x1="8" y1="0.288" x2="8" y2="15.664" gradientUnits="userSpaceOnUse">
<stop stop-color="#00F6B7"/>
<stop offset="0.93" stop-color="#00CB8D"/>
</linearGradient>
<linearGradient id="paint1_linear_406_46067" x1="9" y1="4" x2="9" y2="9" gradientUnits="userSpaceOnUse">
<stop stop-color="#DFDFDF"/>
<stop offset="1" stop-color="#B1B1B1"/>
</linearGradient>
</defs>
</svg>
