<svg width="16" height="16" viewBox="0 0 16 16" fill="none" xmlns="http://www.w3.org/2000/svg">
<path opacity="0.9" d="M12.0234 8.008V6H6.00098V8.008H12.0234Z" fill="url(#paint0_linear_406_46447)"/>
<path d="M9.00488 0C12.8705 0 16.0049 3.13401 16.0049 7L15.9951 7.36035C15.8076 11.0589 12.7497 14 9.00488 14L8.64551 13.9912C7.12149 13.9141 5.72738 13.3476 4.61328 12.4482L1.06445 15.998L0.00390625 14.9375L3.55273 11.3877C2.65592 10.2745 2.0918 8.88194 2.01465 7.36035L2.00586 7C2.00586 3.13412 5.1394 0.000185043 9.00488 0ZM9.00488 1.5C5.96795 1.50019 3.50586 3.96242 3.50586 7C3.50586 10.0376 5.96795 12.4998 9.00488 12.5C12.042 12.5 14.5049 10.0377 14.5049 7C14.5049 3.96231 12.042 1.5 9.00488 1.5Z" fill="url(#paint1_linear_406_46447)"/>
<defs>
<linearGradient id="paint0_linear_406_46447" x1="9.01221" y1="6" x2="9.01221" y2="8.008" gradientUnits="userSpaceOnUse">
<stop stop-color="#00E7F7"/>
<stop offset="1" stop-color="#51C3F1"/>
</linearGradient>
<linearGradient id="paint1_linear_406_46447" x1="8.00439" y1="0" x2="8.00439" y2="15.998" gradientUnits="userSpaceOnUse">
<stop stop-color="#DFDFDF"/>
<stop offset="1" stop-color="#B1B1B1"/>
</linearGradient>
</defs>
</svg>
