<svg width="16" height="16" viewBox="0 0 16 16" fill="none" xmlns="http://www.w3.org/2000/svg">
<path d="M9.36426 0.00878906C12.9546 0.190828 15.83 3.07785 15.9951 6.67188C15.4964 5.92346 14.8345 5.2935 14.0596 4.83301C13.2186 2.87336 11.2724 1.50002 9.00391 1.5C5.96614 1.5 3.50406 3.96186 3.50391 6.99805C3.50391 8.48643 4.09657 9.83597 5.05762 10.8262C5.18449 11.7405 5.51626 12.5891 6.00684 13.3232C5.50595 13.0856 5.03822 12.7897 4.61133 12.4453L1.0625 15.9941L0.00195312 14.9336L3.55078 11.3848C2.58341 10.1848 2.00391 8.65933 2.00391 6.99805C2.00406 3.13311 5.13804 0 9.00391 0L9.36426 0.00878906Z" fill="url(#paint0_linear_406_46518)"/>
<path d="M10.4978 15.9896C9.40808 15.9895 8.34291 15.6659 7.43748 15.0596C6.53204 14.4533 5.82716 13.5918 5.41226 12.5844C4.99737 11.5769 4.89117 10.469 5.10715 9.40112C5.32312 8.33324 5.85152 7.35357 6.62532 6.58643C7.39911 5.81928 8.3834 5.29924 9.45331 5.0923C10.5232 4.88535 11.6305 5.00083 12.6346 5.42407C13.6388 5.84732 14.4945 6.55925 15.0933 7.46953C15.6921 8.37982 16.0069 9.44742 15.9978 10.5369C15.9856 11.9872 15.4008 13.3741 14.3707 14.3953C13.3406 15.4166 11.9486 15.9896 10.4978 15.9896ZM10.4978 6.05694C9.47274 6.05695 8.47931 6.41197 7.6865 7.06163C6.8937 7.71129 6.35047 8.61546 6.14921 9.62036C5.94795 10.6253 6.1011 11.6688 6.5826 12.5736C7.06409 13.4783 7.84421 14.1884 8.79026 14.583C9.73631 14.9776 10.7899 15.0324 11.7718 14.738C12.7536 14.4436 13.6032 13.8183 14.176 12.9683C14.7487 12.1184 15.0093 11.0963 14.9134 10.076C14.8174 9.0556 14.3709 8.09998 13.6498 7.37163C13.2374 6.9551 12.7465 6.62444 12.2055 6.39878C11.6644 6.17312 11.084 6.05693 10.4978 6.05694V6.05694Z" fill="url(#paint1_linear_406_46518)"/>
<path d="M12.998 10.9912H9.99805L9.99805 6.99219H10.998L10.998 9.99148H12.998V10.9912Z" fill="#DFDFDF"/>
<defs>
<linearGradient id="paint0_linear_406_46518" x1="7.99848" y1="0" x2="7.99848" y2="15.9942" gradientUnits="userSpaceOnUse">
<stop stop-color="#DFDFDF"/>
<stop offset="1" stop-color="#B1B1B1"/>
</linearGradient>
<linearGradient id="paint1_linear_406_46518" x1="10.498" y1="4.99219" x2="10.498" y2="15.9896" gradientUnits="userSpaceOnUse">
<stop stop-color="#00F6B7"/>
<stop offset="1" stop-color="#00CB8D"/>
</linearGradient>
</defs>
</svg>
