<svg width="16" height="16" viewBox="0 0 16 16" fill="none" xmlns="http://www.w3.org/2000/svg">
<path d="M8 1.03125C6.61553 1.03125 5.26216 1.44179 4.11101 2.21096C2.95987 2.98013 2.06266 4.07338 1.53284 5.35246C1.00303 6.63155 0.864411 8.03901 1.13451 9.39688C1.4046 10.7547 2.07129 12.002 3.05026 12.981C4.02922 13.96 5.27651 14.6266 6.63438 14.8967C7.99224 15.1668 9.3997 15.0282 10.6788 14.4984C11.9579 13.9686 13.0511 13.0714 13.8203 11.9202C14.5895 10.7691 15 9.41572 15 8.03125C15 6.17473 14.2625 4.39426 12.9498 3.08151C11.637 1.76875 9.85651 1.03125 8 1.03125Z" fill="#22E57D" fill-opacity="0.4"/>
<path d="M8 3.03125C7.01109 3.03125 6.0444 3.32449 5.22215 3.8739C4.39991 4.42331 3.75904 5.2042 3.3806 6.11783C3.00216 7.03146 2.90315 8.0368 3.09608 9.0067C3.289 9.9766 3.76521 10.8675 4.46447 11.5668C5.16373 12.266 6.05465 12.7422 7.02455 12.9352C7.99446 13.1281 8.99979 13.0291 9.91342 12.6506C10.827 12.2722 11.608 11.6313 12.1574 10.8091C12.7068 9.98686 13 9.02015 13 8.03125C13 6.70517 12.4732 5.4334 11.5355 4.49572C10.5979 3.55804 9.32608 3.03125 8 3.03125Z" fill="#22E57D"/>
</svg>
